<svg width="275" height="70" viewBox="0 0 275 70" fill="none" xmlns="http://www.w3.org/2000/svg">
<g clip-path="url(#clip0_613_2)">
<path d="M141.45 31.5213H145.696V50.5802H141.45V31.5213ZM152.583 35.1567C151.207 35.1567 150.024 35.4523 149.045 36.0388C148.061 36.6253 147.276 37.3379 146.689 38.1813C146.103 39.0247 145.696 39.839 145.463 40.6291L145.424 38.4866C145.449 38.2055 145.541 37.7789 145.691 37.2021C145.846 36.6302 146.079 35.9952 146.399 35.3069C146.719 34.6186 147.15 33.9497 147.698 33.3002C148.245 32.6507 148.924 32.1224 149.723 31.7103C150.528 31.3032 151.478 31.0996 152.573 31.0996V35.1567H152.583Z" fill="#20583B"/>
<path d="M156.13 30.2998H160.414V49.3587H156.13V30.2998Z" fill="#20583B"/>
<path d="M200.225 49.8428C198.092 49.8428 196.183 49.4599 194.487 48.6892C192.79 47.9185 191.457 46.7891 190.478 45.301C189.504 43.813 189.015 42.0001 189.015 39.8674C189.015 37.7347 189.504 35.9558 190.478 34.4532C191.453 32.9505 192.79 31.8018 194.487 31.0068C196.183 30.2119 198.092 29.8145 200.225 29.8145C202.358 29.8145 204.257 30.2119 205.925 31.0068C207.592 31.8018 208.91 32.9505 209.875 34.4532C210.839 35.9558 211.319 37.7589 211.319 39.8674C211.319 41.9759 210.839 43.8081 209.875 45.301C208.91 46.7891 207.597 47.9185 205.925 48.6892C204.253 49.4599 202.353 49.8428 200.225 49.8428ZM200.225 46.3383C201.456 46.3383 202.585 46.0959 203.613 45.6064C204.64 45.1168 205.455 44.3849 206.06 43.4106C206.661 42.4364 206.967 41.2537 206.967 39.8674C206.967 38.4811 206.666 37.2984 206.06 36.3241C205.455 35.3499 204.645 34.5986 203.632 34.0702C202.619 33.5419 201.48 33.2802 200.225 33.2802C198.97 33.2802 197.821 33.537 196.798 34.0508C195.771 34.5646 194.942 35.3111 194.312 36.2854C193.682 37.2596 193.367 38.4569 193.367 39.8674C193.367 41.2779 193.677 42.4364 194.293 43.4106C194.908 44.3849 195.737 45.1168 196.779 45.6064C197.821 46.0959 198.97 46.3383 200.225 46.3383Z" fill="#20583B"/>
<path d="M88.2139 49.3536L99.0413 24.5557H103.709L114.614 49.3536H109.908L100.418 26.9695H102.332L92.8812 49.3536H88.2139Z" fill="#20583B"/>
<path d="M126.207 46.4066C124.423 46.4066 122.809 46.0867 121.365 45.4517C119.925 44.8168 118.786 43.8813 117.958 42.6598C117.129 41.4335 116.712 39.9696 116.712 38.2586C116.712 36.5476 117.114 35.0692 117.919 33.8186C118.723 32.5681 119.843 31.5987 121.287 30.9104C122.727 30.2221 124.37 29.8779 126.202 29.8779C126.74 29.8779 127.253 29.9167 127.753 29.9943C128.252 30.0718 128.727 30.1736 129.187 30.2996L138.1 30.3384V33.8962C136.874 33.9204 135.643 33.7508 134.407 33.3776C133.171 33.0092 132.081 32.6166 131.136 32.2094L131.019 31.9816C131.887 32.4178 132.672 32.9462 133.37 33.5714C134.073 34.1967 134.625 34.9044 135.032 35.6945C135.439 36.4846 135.643 37.3764 135.643 38.3749C135.643 40.0569 135.241 41.5013 134.436 42.6986C133.632 43.8958 132.522 44.8168 131.107 45.4517C129.691 46.0916 128.053 46.4066 126.187 46.4066H126.207ZM132.328 57.1236V56.2414C132.328 54.9909 131.96 54.1087 131.218 53.5998C130.476 53.0908 129.444 52.8339 128.116 52.8339H122.95C121.927 52.8339 121.055 52.7515 120.328 52.5867C119.601 52.4219 119.019 52.1796 118.588 51.8596C118.151 51.5397 117.836 51.1714 117.633 50.7497C117.429 50.328 117.327 49.8626 117.327 49.3537C117.327 48.3358 117.638 47.5699 118.263 47.0561C118.888 46.5472 119.717 46.2127 120.749 46.0625C121.782 45.9074 122.872 45.8831 124.021 45.9849L126.202 46.4066C124.694 46.4599 123.555 46.5908 122.775 46.8089C121.995 47.0271 121.607 47.4536 121.607 48.0886C121.607 48.4715 121.762 48.7769 122.067 49.0047C122.373 49.2325 122.809 49.3488 123.366 49.3488H128.8C130.355 49.3488 131.722 49.533 132.895 49.9014C134.068 50.2698 134.979 50.8951 135.628 51.7772C136.278 52.6594 136.603 53.8615 136.603 55.3932V57.1139H132.318L132.328 57.1236ZM126.207 43.0815C127.224 43.0815 128.131 42.8925 128.926 42.5095C129.716 42.1266 130.341 41.5789 130.801 40.8664C131.262 40.1538 131.489 39.2862 131.489 38.2635C131.489 37.2407 131.262 36.3634 130.801 35.6218C130.341 34.8802 129.716 34.3227 128.926 33.9398C128.136 33.5569 127.229 33.3679 126.207 33.3679C125.184 33.3679 124.311 33.5569 123.507 33.9398C122.702 34.3227 122.072 34.8753 121.612 35.6024C121.151 36.3295 120.924 37.2165 120.924 38.2635C120.924 39.3104 121.151 40.1538 121.612 40.8664C122.072 41.5789 122.698 42.1315 123.488 42.5095C124.278 42.8925 125.184 43.0815 126.207 43.0815Z" fill="#20583B"/>
<path d="M186.014 41.9715C185.859 43.605 185.336 45.0058 184.444 46.1788C183.552 47.3518 182.36 48.2437 180.867 48.8592C179.374 49.47 177.659 49.7753 175.72 49.7753C173.626 49.7753 171.736 49.3924 170.04 48.6266C168.343 47.8607 166.996 46.741 166.003 45.2578C165.009 43.7795 164.51 41.9812 164.51 39.863C164.51 37.7448 165.009 35.9465 166.003 34.4681C166.996 32.9897 168.343 31.8555 170.04 31.0606C171.736 30.2705 173.631 29.873 175.72 29.873C177.659 29.873 179.37 30.1881 180.848 30.8085C182.326 31.4338 183.514 32.3208 184.405 33.4696C185.297 34.6184 185.821 36.0095 185.976 37.643H182.074C181.638 36.2906 180.858 35.2388 179.719 34.4875C178.584 33.7362 177.252 33.3581 175.72 33.3581C174.47 33.3581 173.321 33.6053 172.274 34.1046C171.227 34.6038 170.394 35.3309 169.768 36.2858C169.143 37.2407 168.833 38.4331 168.833 39.863C168.833 41.2929 169.143 42.4513 169.768 43.4208C170.394 44.3902 171.227 45.1124 172.274 45.5826C173.321 46.0528 174.47 46.2903 175.72 46.2903C177.402 46.2903 178.788 45.9122 179.874 45.1609C180.959 44.4096 181.706 43.3432 182.113 41.9666H186.014V41.9715Z" fill="#20583B"/>
<path d="M219.684 24.5605V45.6068H235.14V49.3584H215.322V24.5605H219.684Z" fill="#20583B"/>
<path d="M246.39 49.7753C244.655 49.7753 243.065 49.3536 241.626 48.5102C240.186 47.6668 239.038 46.5035 238.185 45.0106C237.332 43.5177 236.9 41.8018 236.9 39.863C236.9 37.9241 237.332 36.1307 238.199 34.6378C239.067 33.1449 240.24 31.9767 241.718 31.1381C243.196 30.2947 244.854 29.873 246.691 29.873C248.731 29.873 250.35 30.319 251.552 31.2109C252.749 32.1027 253.607 33.3048 254.116 34.8074C254.625 36.3149 254.882 37.9968 254.882 39.8581C254.882 40.9051 254.726 42.0054 254.421 43.1687C254.116 44.332 253.636 45.4081 252.986 46.4017C252.337 47.3954 251.469 48.2049 250.384 48.8302C249.298 49.4554 247.965 49.7656 246.385 49.7656V49.7753H246.39ZM247.694 46.2563C249.124 46.2563 250.34 45.98 251.348 45.4323C252.356 44.8846 253.122 44.1236 253.646 43.1542C254.169 42.1847 254.431 41.0893 254.431 39.863C254.431 38.5106 254.164 37.357 253.626 36.4021C253.088 35.4472 252.327 34.7056 251.329 34.1821C250.335 33.6586 249.124 33.3969 247.694 33.3969C245.653 33.3969 244.073 33.998 242.949 35.1952C241.825 36.3924 241.267 37.9484 241.267 39.863C241.267 41.1135 241.543 42.2235 242.091 43.1929C242.639 44.1624 243.4 44.9137 244.369 45.4517C245.338 45.9897 246.448 46.2563 247.699 46.2563H247.694ZM254.426 30.2996H258.71V49.3585H254.731C254.63 48.3891 254.552 47.5554 254.503 46.8525C254.45 46.1497 254.426 45.4808 254.426 44.8458V30.3044V30.2996Z" fill="#20583B"/>
<path d="M263.867 30.2996H268.113V49.3585H263.867V30.2996ZM275 33.935C273.624 33.935 272.441 34.2307 271.462 34.8172C270.478 35.4037 269.693 36.1162 269.106 36.9596C268.52 37.803 268.113 38.6173 267.88 39.4074L267.841 37.2649C267.866 36.9838 267.958 36.5573 268.108 35.9805C268.263 35.4085 268.496 34.7735 268.816 34.0852C269.136 33.3969 269.567 32.728 270.115 32.0785C270.662 31.429 271.341 30.9007 272.14 30.4887C272.945 30.0815 273.895 29.8779 274.99 29.8779V33.935H275Z" fill="#20583B"/>
<path d="M73.4173 31.2109H56.7399C56.3545 31.2109 56.042 31.5234 56.042 31.9089V33.4261C56.042 33.8116 56.3545 34.1241 56.7399 34.1241H73.4173C73.8028 34.1241 74.1152 33.8116 74.1152 33.4261V31.9089C74.1152 31.5234 73.8028 31.2109 73.4173 31.2109Z" fill="#20583B"/>
<path d="M56.9285 35.5682C56.943 34.2546 56.943 32.9459 56.9576 31.6323C56.9576 31.1961 56.9673 31.2009 56.5117 31.2106C56.0319 31.2203 55.5423 31.1912 55.0674 31.2542C54.2434 31.3657 53.4243 31.5063 52.6101 31.6808C50.9574 32.0395 49.3725 32.6017 47.8894 33.416C47.1624 33.8135 46.4839 34.2885 45.7618 34.7005C44.5646 35.384 43.6535 36.3873 42.6987 37.3519C42.34 37.7154 41.962 38.0693 41.6566 38.4764C41.2107 39.0678 40.8133 39.6931 40.4159 40.3183C39.621 41.5689 39.0443 42.9213 38.5548 44.3172C38.4045 44.7341 38.2494 45.1558 38.138 45.5823C38.0168 46.0428 37.9489 46.5227 37.852 46.988C37.7696 47.3903 37.6436 47.7878 37.6048 48.1949C37.5321 48.9559 37.4885 49.7218 37.4788 50.4876C37.4594 51.9515 37.4788 53.4104 37.4691 54.8743C37.4691 56.3526 37.4546 57.831 37.4449 59.3094C37.4352 60.5163 37.4061 61.7233 37.4013 62.9302C37.3916 65.0484 37.4013 67.1617 37.3867 69.2799C37.3867 69.4593 37.3867 69.4447 37.3867 69.6435C37.4303 69.6435 37.9926 69.6532 38.3318 69.6532C40.1299 69.6532 41.928 69.6677 43.7262 69.6774C45.9653 69.6919 48.2045 69.7016 50.4388 69.7162C52.518 69.7307 54.5972 69.7549 56.6765 69.7695C57.2144 69.7695 57.7524 69.7986 58.2856 69.7501C58.8768 69.6968 59.4584 69.5756 60.0449 69.4738C60.4569 69.4011 60.8737 69.3332 61.2759 69.2266C61.9933 69.0376 62.73 68.8728 63.4182 68.6013C64.3681 68.2281 65.2987 67.7822 66.2147 67.3217C66.7818 67.0357 67.2955 66.6479 67.8577 66.3474C68.4248 66.042 68.9046 65.6349 69.365 65.1986C70.0436 64.554 70.7463 63.9384 71.3909 63.2598C72.2149 62.397 72.8401 61.384 73.4508 60.3709C74.1778 59.164 74.7691 57.894 75.1762 56.5465C75.4379 55.674 75.6706 54.787 75.8596 53.9C75.9904 53.2893 76.0437 52.664 76.1068 52.0435C76.1552 51.5734 76.1988 51.1032 76.1988 50.633C76.1988 49.7654 76.1601 48.8929 76.1552 48.0253C76.1504 47.0413 76.1601 46.0573 76.1649 45.0782C76.1698 43.784 76.1795 42.485 76.1891 41.1908C76.194 40.2747 76.1988 39.3635 76.2085 38.4474C76.2182 37.6718 76.257 36.8963 76.2618 36.1207C76.2618 34.6908 76.2473 33.2561 76.2522 31.8262C76.2522 31.6468 76.3055 31.4723 76.3297 31.3027C74.7448 31.293 73.16 31.2833 71.546 31.2736V31.6808C71.546 34.1673 71.5073 33.9201 71.5315 34.1819C71.5315 34.1819 71.483 35.51 71.517 35.7281C71.4588 35.9269 71.4006 36.0626 71.3667 36.0965C71.0905 36.3922 70.7754 36.6539 70.4943 36.9496C70.1938 37.2598 69.9224 37.604 69.6171 37.9093C68.9143 38.6219 68.197 39.315 67.4845 40.0178C67.3391 40.1632 67.1986 40.3135 67.0483 40.4492C66.9902 40.5025 66.9126 40.5268 66.8399 40.5656C66.8108 40.4928 66.7624 40.4201 66.7624 40.3474C66.7575 39.9936 66.7624 39.6397 66.7624 39.2908C66.7769 38.2147 66.7963 37.1386 66.8108 36.0577C66.8205 35.3113 66.8399 34.9186 66.8399 34.1673C66.8399 33.416 66.8254 32.2479 66.8157 31.4627C66.8157 31.3027 66.743 31.2688 66.5879 31.2639C65.2696 31.2542 63.9513 31.23 62.633 31.2106C62.3616 31.2106 62.095 31.2106 61.8236 31.23C61.7752 31.23 61.6976 31.3366 61.6976 31.3899C61.6928 32.7423 61.6976 34.0995 61.6976 35.4518C61.6976 36.3825 61.7073 37.318 61.6976 38.2486C61.6928 39.0872 61.654 39.9209 61.654 40.7594C61.654 42.2475 61.6685 43.7356 61.6831 45.2236C61.6831 45.5726 61.5522 45.8538 61.3099 46.0913C59.914 47.4533 58.523 48.8154 57.1272 50.1726C57.069 50.2307 56.977 50.255 56.8994 50.2986C56.88 50.221 56.8412 50.1435 56.8412 50.0659C56.8412 48.7281 56.8558 47.3855 56.8606 46.0477C56.8606 45.3933 56.8703 44.7389 56.8703 44.0846C56.8703 43.1054 56.88 42.1263 56.8897 41.1472C56.8994 39.8094 56.9043 38.4716 56.9139 37.1338V36.3679M47.1915 59.9395C47.2061 59.9783 47.2206 60.0122 47.2351 60.051C53.9623 60.0898 60.6895 60.1286 67.4845 60.1722C67.4118 60.2885 67.3682 60.3855 67.3004 60.4533C67.0386 60.7054 66.7672 60.9429 66.5007 61.1901C66.1032 61.5536 65.7446 61.9705 65.3084 62.2758C64.0822 63.1483 62.7445 63.8172 61.3002 64.2728C60.0546 64.6606 58.7848 64.8836 57.4859 64.9175C56.8267 64.9369 56.1627 64.8933 55.5036 64.8933H51.4033C50.0559 64.8884 48.7085 64.8642 47.3612 64.8593C45.8248 64.8497 44.2932 64.8593 42.7568 64.8545C42.3836 64.8545 42.3255 64.8012 42.3303 64.4376C42.3303 64.0353 42.3642 63.633 42.3642 63.2307C42.3642 61.9947 42.3546 60.7587 42.3642 59.5227C42.3739 58.0831 42.3982 56.6386 42.4079 55.199C42.4224 53.5122 42.4273 51.8206 42.4418 50.1338C42.4563 48.4373 42.8101 46.8038 43.4063 45.2236C43.8716 43.9876 44.5016 42.834 45.3159 41.7919C45.6503 41.3653 46.038 40.9727 46.4161 40.5849C46.9056 40.0808 47.3902 39.5622 47.9282 39.1114C48.3693 38.7382 48.8685 38.4328 49.3628 38.1371C50.2449 37.6088 51.1755 37.1871 52.1981 36.8527C52.2127 37.0029 52.2369 37.1144 52.2369 37.2307C52.2272 38.8739 52.2175 40.5171 52.2078 42.1603C52.1981 43.4981 52.1933 44.8359 52.1836 46.1737C52.1836 47.0704 52.1739 47.9671 52.1691 48.859C52.1691 49.6151 52.1594 50.3713 52.1545 51.1274C52.1545 52.3004 52.1254 53.4686 52.14 54.6416C52.14 55.0342 51.9897 55.3251 51.7329 55.5771C50.3806 56.9198 49.0284 58.2624 47.6665 59.6002C47.5308 59.7359 47.3563 59.8329 47.1964 59.9492V59.9395H47.1915ZM52.3581 55.2039L52.3193 55.1312C52.4599 54.9858 52.5956 54.8452 52.7361 54.6998C53.972 53.4492 55.2079 52.1987 56.4487 50.9529C56.6813 50.7203 56.9333 50.5555 57.3065 50.5652C58.746 50.6088 60.1903 50.6282 61.6298 50.6379C62.4101 50.6427 63.1904 50.6136 63.9658 50.6136C64.9836 50.6136 65.9966 50.6233 67.0144 50.6233H69.714C69.8788 50.6233 70.0436 50.6912 70.2035 50.6864C70.4798 50.6864 70.756 50.633 71.0371 50.6282C71.4103 50.6185 71.4103 50.6282 71.3958 51.0063C71.3279 52.3877 71.0517 53.7352 70.6736 55.0585C70.6155 55.2572 70.5088 55.3347 70.2907 55.3299C68.575 55.3105 66.8593 55.3008 65.1387 55.2911C62.8899 55.2766 60.6362 55.262 58.3873 55.2475C56.4584 55.2378 54.5294 55.2233 52.6004 55.2136C52.518 55.2136 52.4356 55.2039 52.3581 55.199V55.2039ZM64.2857 45.718C63.6217 45.718 62.9577 45.7132 62.2937 45.7035C62.2017 45.7035 62.1144 45.655 62.0223 45.6259C62.0708 45.5435 62.1096 45.4466 62.1774 45.3787C63.5684 44.0022 64.9594 42.6304 66.3504 41.2538C66.6073 41.0018 66.869 40.8176 67.2567 40.8806C67.4845 40.9145 67.722 40.9145 67.9547 40.9145C69.0306 40.9145 70.1066 40.9145 71.1825 40.9048C71.4152 40.9048 71.4927 40.9776 71.483 41.2102C71.454 41.7628 71.4346 42.3105 71.4346 42.8631C71.4346 43.7501 71.4443 44.6371 71.4539 45.5242C71.4539 45.6841 71.3813 45.7617 71.2165 45.7568C70.9063 45.7471 70.5961 45.752 70.2811 45.7471C69.5153 45.7471 68.7447 45.7374 67.9789 45.7326C67.3973 45.7326 66.8108 45.7277 66.2292 45.7229C65.5846 45.7229 64.9352 45.7132 64.2906 45.7132H64.2857V45.718Z" fill="#20583B"/>
<path d="M2.92254 34.124H19.5999C19.9854 34.124 20.2979 33.8115 20.2979 33.426V31.9089C20.2979 31.5234 19.9854 31.2109 19.5999 31.2109L2.92254 31.2109C2.53709 31.2109 2.22462 31.5234 2.22462 31.9089V33.426C2.22462 33.8115 2.53709 34.124 2.92254 34.124Z" fill="#20583B"/>
<path d="M19.4061 35.5682C19.3916 34.2546 19.3916 32.9459 19.377 31.6323C19.377 31.1961 19.3673 31.2009 19.8229 31.2106C20.3027 31.2203 20.7922 31.1912 21.2672 31.2542C22.0912 31.3657 22.9102 31.5063 23.7245 31.6808C25.3772 32.0395 26.9621 32.6017 28.4451 33.416C29.1721 33.8135 29.8507 34.2885 30.5728 34.7005C31.77 35.384 32.6811 36.3873 33.6359 37.3519C33.9946 37.7154 34.3726 38.0693 34.678 38.4764C35.1238 39.0678 35.5213 39.6931 35.9187 40.3183C36.7135 41.5689 37.2903 42.9213 37.7798 44.3172C37.9301 44.7341 38.0852 45.1558 38.1966 45.5823C38.3178 46.0428 38.3857 46.5227 38.4826 46.988C38.565 47.3903 38.691 47.7878 38.7298 48.1949C38.8025 48.9559 38.8461 49.7218 38.8558 50.4876C38.8752 51.9515 38.8558 53.4104 38.8655 54.8743C38.8655 56.3526 38.88 57.831 38.8897 59.3094C38.8994 60.5163 38.9285 61.7233 38.9333 62.9302C38.943 65.0484 38.9333 67.1617 38.9479 69.2799C38.9479 69.4593 38.9479 69.4447 38.9479 69.6435C38.9042 69.6435 38.342 69.6532 38.0028 69.6532C36.2047 69.6532 34.4065 69.6677 32.6084 69.6774C30.3693 69.6919 28.1301 69.7016 25.8958 69.7162C23.8166 69.7307 21.7373 69.7549 19.6581 69.7695C19.1201 69.7695 18.5822 69.7986 18.049 69.7501C17.4577 69.6968 16.8761 69.5756 16.2897 69.4738C15.8777 69.4011 15.4609 69.3332 15.0586 69.2266C14.3413 69.0376 13.6046 68.8728 12.9164 68.6013C11.9665 68.2281 11.0359 67.7822 10.1199 67.3217C9.55282 67.0357 9.03907 66.6479 8.47686 66.3474C7.9098 66.042 7.42998 65.6349 6.96955 65.1986C6.29101 64.554 5.58824 63.9384 4.94364 63.2598C4.1197 62.397 3.49448 61.384 2.8838 60.3709C2.1568 59.164 1.56551 57.894 1.15839 56.5465C0.89667 55.674 0.66403 54.787 0.47501 53.9C0.34415 53.2893 0.290836 52.664 0.22783 52.0435C0.179363 51.5734 0.135743 51.1032 0.135743 50.633C0.135743 49.7654 0.174516 48.8929 0.179363 48.0253C0.18421 47.0413 0.174516 46.0573 0.16967 45.0782C0.164823 43.784 0.15513 42.485 0.145436 41.1908C0.14059 40.2747 0.135743 39.3635 0.12605 38.4474C0.116356 37.6718 0.0775828 36.8963 0.0727362 36.1207C0.0727362 34.6908 0.0872762 33.2561 0.0824295 31.8262C0.0824295 31.6468 0.0291162 31.4723 0.00488281 31.3027C1.58974 31.293 3.1746 31.2833 4.78854 31.2736V31.6808C4.78854 34.1673 4.82732 33.9201 4.80308 34.1819C4.80308 34.1819 4.85155 35.51 4.81762 35.7281C4.87578 35.9269 4.93394 36.0626 4.96787 36.0965C5.24413 36.3922 5.55916 36.6539 5.84027 36.9496C6.14077 37.2598 6.41218 37.604 6.71752 37.9093C7.42029 38.6219 8.13759 39.315 8.85005 40.0178C8.99545 40.1632 9.13601 40.3135 9.28625 40.4492C9.34441 40.5025 9.42196 40.5268 9.49466 40.5656C9.52374 40.4928 9.57221 40.4201 9.57221 40.3474C9.57705 39.9936 9.57221 39.6397 9.57221 39.2908C9.55767 38.2147 9.53828 37.1386 9.52374 36.0577C9.51405 35.3113 9.49466 34.9186 9.49466 34.1673C9.49466 33.416 9.5092 32.2479 9.51889 31.4627C9.51889 31.3027 9.59159 31.2688 9.74669 31.2639C11.065 31.2542 12.3833 31.23 13.7016 31.2106C13.973 31.2106 14.2395 31.2106 14.511 31.23C14.5594 31.23 14.637 31.3366 14.637 31.3899C14.6418 32.7423 14.637 34.0995 14.637 35.4518C14.637 36.3825 14.6273 37.318 14.637 38.2486C14.6418 39.0872 14.6806 39.9209 14.6806 40.7594C14.6806 42.2475 14.6661 43.7356 14.6515 45.2236C14.6515 45.5726 14.7824 45.8538 15.0247 46.0913C16.4205 47.4533 17.8115 48.8154 19.2074 50.1726C19.2655 50.2307 19.3576 50.255 19.4352 50.2986C19.4546 50.221 19.4933 50.1435 19.4933 50.0659C19.4933 48.7281 19.4788 47.3855 19.474 46.0477C19.474 45.3933 19.4643 44.7389 19.4643 44.0846C19.4643 43.1054 19.4546 42.1263 19.4449 41.1472C19.4352 39.8094 19.4303 38.4716 19.4206 37.1338V36.3679M29.1431 59.9395C29.1285 59.9783 29.114 60.0122 29.0994 60.051C22.3723 60.0898 15.6451 60.1286 8.85005 60.1722C8.92275 60.2885 8.96637 60.3855 9.03423 60.4533C9.29595 60.7054 9.56736 60.9429 9.83393 61.1901C10.2314 61.5536 10.59 61.9705 11.0262 62.2758C12.2524 63.1483 13.5901 63.8172 15.0344 64.2728C16.28 64.6606 17.5498 64.8836 18.8487 64.9175C19.5079 64.9369 20.1719 64.8933 20.831 64.8933H24.9313C26.2787 64.8884 27.626 64.8642 28.9734 64.8593C30.5098 64.8497 32.0414 64.8593 33.5778 64.8545C33.9509 64.8545 34.0091 64.8012 34.0043 64.4376C34.0043 64.0353 33.9703 63.633 33.9703 63.2307C33.9703 61.9947 33.98 60.7587 33.9703 59.5227C33.9606 58.0831 33.9364 56.6386 33.9267 55.199C33.9122 53.5122 33.9073 51.8206 33.8928 50.1338C33.8782 48.4373 33.5244 46.8038 32.9283 45.2236C32.463 43.9876 31.833 42.834 31.0187 41.7919C30.6843 41.3653 30.2966 40.9727 29.9185 40.5849C29.429 40.0808 28.9443 39.5622 28.4064 39.1114C27.9653 38.7382 27.4661 38.4328 26.9717 38.1371C26.0897 37.6088 25.1591 37.1871 24.1364 36.8527C24.1219 37.0029 24.0977 37.1144 24.0977 37.2307C24.1074 38.8739 24.1171 40.5171 24.1268 42.1603C24.1364 43.4981 24.1413 44.8359 24.151 46.1737C24.151 47.0704 24.1607 47.9671 24.1655 48.859C24.1655 49.6151 24.1752 50.3713 24.1801 51.1274C24.1801 52.3004 24.2091 53.4686 24.1946 54.6416C24.1946 55.0342 24.3449 55.3251 24.6017 55.5771C25.9539 56.9198 27.3062 58.2624 28.6681 59.6002C28.8038 59.7359 28.9783 59.8329 29.1382 59.9492V59.9395H29.1431ZM23.9765 55.2039L24.0153 55.1312C23.8747 54.9858 23.739 54.8452 23.5985 54.6998C22.3626 53.4492 21.1267 52.1987 19.8859 50.9529C19.6533 50.7203 19.4013 50.5555 19.0281 50.5652C17.5886 50.6088 16.1443 50.6282 14.7048 50.6379C13.9245 50.6427 13.1442 50.6136 12.3687 50.6136C11.3509 50.6136 10.338 50.6233 9.32018 50.6233H6.62059C6.4558 50.6233 6.29101 50.6912 6.13107 50.6864C5.85481 50.6864 5.57855 50.633 5.29744 50.6282C4.92425 50.6185 4.92425 50.6282 4.93879 51.0063C5.00664 52.3877 5.2829 53.7352 5.66095 55.0585C5.71911 55.2572 5.82573 55.3347 6.04383 55.3299C7.75955 55.3105 9.47527 55.3008 11.1958 55.2911C13.4447 55.2766 15.6984 55.262 17.9472 55.2475C19.8762 55.2378 21.8052 55.2233 23.7342 55.2136C23.8166 55.2136 23.899 55.2039 23.9765 55.199V55.2039ZM12.0489 45.718C12.7128 45.718 13.3768 45.7132 14.0408 45.7035C14.1329 45.7035 14.2202 45.655 14.3122 45.6259C14.2638 45.5435 14.225 45.4466 14.1572 45.3787C12.7662 44.0022 11.3752 42.6304 9.98417 41.2538C9.7273 41.0018 9.46558 40.8176 9.07785 40.8806C8.85005 40.9145 8.61257 40.9145 8.37993 40.9145C7.30397 40.9145 6.22801 40.9145 5.15204 40.9048C4.9194 40.9048 4.84186 40.9776 4.85155 41.2102C4.88063 41.7628 4.90002 42.3105 4.90002 42.8631C4.90002 43.7501 4.89032 44.6371 4.88063 45.5242C4.88063 45.6841 4.95333 45.7617 5.11812 45.7568C5.4283 45.7471 5.73849 45.752 6.05352 45.7471C6.8193 45.7471 7.58992 45.7374 8.35569 45.7326C8.93729 45.7326 9.52374 45.7277 10.1053 45.7229C10.7499 45.7229 11.3994 45.7132 12.044 45.7132H12.0489V45.718Z" fill="#20583B"/>
<path d="M20.5402 26.5188C21.1509 14.7742 32.1479 7.27089 42.5634 10.2276C50.0661 12.3604 55.1599 18.9137 55.4313 27.1102C55.4847 28.7 53.8465 30.0136 51.8593 29.97C51.0645 29.9506 50.2599 29.8488 49.4845 29.6695C41.6717 27.8615 33.8685 27.9099 26.0702 29.7228C24.9022 29.9942 23.7535 30.2026 22.5612 29.6452C20.8116 28.8261 20.5014 28.4383 20.5402 26.5188Z" fill="#DDAE07"/>
<path d="M39.3359 5.52132C39.4377 4.09142 39.5492 2.72938 39.6316 1.36734C39.7188 -0.0383289 40.5961 -0.0383288 41.5218 0.0149896C42.5202 0.0731551 43.0533 0.514244 42.8255 1.75511C42.5396 3.31588 42.3312 4.89605 42.0937 6.47136C41.9386 7.50865 41.6526 8.38113 40.4458 8.20178C39.2729 8.03214 39.3553 7.05786 39.3359 6.13691V5.52132Z" fill="#DDAE07"/>
<path d="M31.2413 8.0949C31.3431 9.0207 30.8487 9.37454 30.2914 9.66537C29.6855 9.97559 29.2251 9.73323 28.9537 9.08856C28.2315 7.38237 27.4948 5.67619 26.8405 3.93607C26.2783 2.44315 27.5045 2.3656 28.2073 1.90997C28.9537 1.4301 29.3656 1.78394 29.6758 2.6128C30.3544 4.41593 30.8003 6.30147 31.2413 8.09975V8.0949Z" fill="#DDAE07"/>
<path d="M50.2792 11.8945C49.2177 11.9381 48.389 10.6536 48.9221 9.6648C49.7945 8.04102 50.7541 6.47055 51.6895 4.88554C52.3681 3.73192 53.1048 4.26511 53.8221 4.82737C54.5442 5.39449 55.1937 5.94706 54.3552 7.01827C53.2647 8.4094 52.2518 9.87323 51.2049 11.3031C50.9674 11.6279 50.6863 11.8751 50.284 11.8945H50.2792Z" fill="#DDAE07"/>
<path d="M59.8325 11.1143C59.8082 11.7057 59.5562 11.9771 59.2266 12.2098C57.7775 13.2228 56.3138 14.2213 54.884 15.2538C53.8904 15.976 53.2313 15.4961 52.577 14.803C51.8403 14.0274 52.4801 13.5621 53.018 13.0919C54.2539 12.0062 55.5044 10.9398 56.7548 9.8686C57.1668 9.51476 57.5788 9.00581 58.2088 9.36934C58.9843 9.81528 59.6095 10.426 59.8325 11.1143Z" fill="#DDAE07"/>
<path d="M36.1322 6.389C36.3018 7.78982 35.7009 8.19213 34.9012 8.37632C34.053 8.5702 33.7234 8.00309 33.578 7.20816C33.2387 5.3711 32.8946 3.52919 32.6378 1.67274C32.4536 0.354325 33.389 0.252535 34.1499 0.0828855C34.9642 -0.0964581 35.6427 0.102274 35.7202 1.27528C35.8414 3.09295 36.171 5.5456 36.1371 6.389H36.1322Z" fill="#DDAE07"/>
<path d="M21.1121 18.6906C21.0684 19.6164 20.1039 20.2078 18.9941 19.883C17.2299 19.3692 15.4899 18.7876 13.7548 18.1962C12.233 17.6776 13.5076 16.2331 13.5076 16.2331C13.653 16.0441 14.2637 15.0698 15.3397 15.5642C16.9245 16.2864 18.5482 16.965 20.1524 17.663C20.6613 17.886 21.1751 18.109 21.1121 18.6858V18.6906Z" fill="#DDAE07"/>
<path d="M22.9003 5.04112C23.4771 5.01688 23.7921 5.40465 24.0587 5.80212C25.0183 7.22233 25.9489 8.66192 26.8891 10.0967C27.2429 10.6299 27.4659 11.1776 26.7922 11.6235C26.1621 12.0452 25.4642 12.5639 24.7663 11.798C23.4674 10.3633 22.1927 8.90912 20.981 7.40652C20.4721 6.77639 21.8534 5.11383 22.9003 5.04112Z" fill="#DDAE07"/>
<path d="M62.7739 17.125C62.8272 17.7115 62.3959 17.949 61.9015 18.1478C60.2342 18.8215 58.5621 19.4904 56.8997 20.1836C56.0661 20.5277 55.5039 20.3629 55.1016 19.5777C54.7187 18.8264 54.5782 18.235 55.5669 17.7455C57.0209 17.0281 58.4167 16.2041 59.8513 15.4431C61.4314 14.6045 62.7884 15.3946 62.7739 17.125Z" fill="#DDAE07"/>
<path d="M45.6072 9.47603C44.8996 9.16097 43.9303 8.98647 44.3132 7.56626C44.7881 5.8213 45.268 4.07633 45.7478 2.33137C45.9998 1.42011 46.4699 0.89662 47.3181 1.45889C48.016 1.91936 49.3488 1.9339 48.7672 3.49468C48.1033 5.28327 47.3423 7.02823 46.625 8.79259C46.4408 9.24337 46.1791 9.55359 45.6024 9.47119L45.6072 9.47603Z" fill="#DDAE07"/>
<path d="M16.8522 24.7014C15.6212 24.5705 14.1575 24.4299 12.7035 24.2506C11.4821 24.0955 11.1622 23.4508 11.3852 22.4572C11.6081 21.4635 12.1897 20.9691 13.3869 21.2163C14.9863 21.5459 16.5614 21.9531 18.1608 22.2584C19.0865 22.4329 19.5857 22.7722 19.45 23.6399C19.3143 24.5172 18.6649 24.7402 17.7634 24.7062C17.5356 24.6965 17.3078 24.7062 16.8522 24.7062V24.7014Z" fill="#DDAE07"/>
<path d="M60.0798 29.2089C61.3108 29.0877 62.7745 28.9617 64.2285 28.7969C65.4499 28.6563 65.7698 28.0698 65.5468 27.1634C65.3239 26.257 64.7423 25.8062 63.5452 26.034C61.9458 26.3346 60.3706 26.7078 58.7712 26.9841C57.8455 27.144 57.3463 27.4543 57.482 28.2443C57.6177 29.0441 58.2671 29.2477 59.1686 29.2186C59.3964 29.2089 59.6242 29.2186 60.0798 29.2186V29.2089Z" fill="#DDAE07"/>
<path d="M16.0037 29.4071C14.7678 29.3781 13.2992 29.3587 11.8355 29.3005C10.6093 29.252 10.2458 28.6849 10.4009 27.7688C10.556 26.8479 11.1037 26.3583 12.3153 26.494C13.9293 26.6734 15.5287 26.9303 17.1475 27.0902C18.0829 27.1823 18.6015 27.4538 18.5288 28.2487C18.4561 29.0533 17.8212 29.3054 16.9197 29.3441C16.6919 29.3538 16.4689 29.3781 16.0085 29.412H16.0037V29.4071Z" fill="#DDAE07"/>
<path d="M59.4782 24.3713C60.7093 24.2404 62.173 24.0999 63.627 23.9205C64.8483 23.7654 65.1682 23.1207 64.9453 22.1271C64.7223 21.1334 64.1407 20.639 62.9436 20.8862C61.3442 21.2158 59.769 21.623 58.1696 21.9283C57.2439 22.1028 56.7447 22.4421 56.8804 23.3098C57.0161 24.1871 57.6656 24.4101 58.5671 24.3761C58.7948 24.3665 59.0226 24.3761 59.4782 24.3761V24.3713Z" fill="#DDAE07"/>
<path d="M23.7488 14.1975C23.7779 15.0748 22.6971 15.9182 21.9071 15.574C19.9006 14.6967 18.1703 13.4122 16.4982 12.1084C15.6161 11.4201 17.0895 10.2228 17.0895 10.2228C17.0895 10.2228 17.7438 9.39881 18.6065 9.6654C20.3804 10.9402 22.1155 12.278 23.6034 13.8388C23.7052 13.9454 23.7197 14.1199 23.7488 14.2023V14.1975Z" fill="#DDAE07"/>
<path d="M158.273 29.4313C159.456 29.4313 160.415 28.4721 160.415 27.2889C160.415 26.1057 159.456 25.1465 158.273 25.1465C157.09 25.1465 156.131 26.1057 156.131 27.2889C156.131 28.4721 157.09 29.4313 158.273 29.4313Z" fill="#20583B"/>
</g>
<defs>
<clipPath id="clip0_613_2">
<rect width="275" height="69.7792" fill="white"/>
</clipPath>
</defs>
</svg>
